<svg xmlns="http://www.w3.org/2000/svg" viewBox="0 0 100.07 99.58"><defs><style>.cls-1{fill:#44a833;}</style></defs><g id="Layer_2" data-name="Layer 2"><g id="layer"><path class="cls-1" d="M18.6,76.3v-.4a83.05,83.05,0,0,1,.7-8.6V67H19a77.6,77.6,0,0,1-7.7-3.7l-.3-.2-.2.3A76.17,76.17,0,0,0,6.7,73.7V74h.4a71.29,71.29,0,0,0,11.2,2.1Zm7.8-50.5c-2.2,0-4.3.2-6.5.4.3,2.2.7,4.3,1.1,6.5a30.54,30.54,0,0,1,5.4-6.9ZM18.6,78.9v-.3h-.3A64.11,64.11,0,0,1,8.7,77l-.8-.2.5.7A51.37,51.37,0,0,0,18.8,88.9l.7.5v-.8c-.5-3.2-.7-6.5-.9-9.7ZM34.1,2.7A49.93,49.93,0,0,0,23.2,8a48.17,48.17,0,0,1,7.5,1.8c1.1-2.4,2.2-4.8,3.4-7.1ZM50.3,0a54.41,54.41,0,0,0-5.7.3,61.62,61.62,0,0,1,7.5,6l2,1.8L52.2,10c-1.6,1.6-3.2,3.3-4.7,5l-.7.9c1.2-.1,2.4-.2,3.6-.2A34,34,0,0,1,77.2,29.3a34.37,34.37,0,0,1,5.5,29.6A34,34,0,0,1,32.6,78.8a65.07,65.07,0,0,1-7.7.4H21.3a94,94,0,0,0,1.1,11.9A49.83,49.83,0,1,0,50.3,0ZM43.7,11.9c1-1.2,2-2.3,3-3.4A55.79,55.79,0,0,0,39.4,3a58.08,58.08,0,0,0-4.1,8.3c2.3.8,4.5,1.7,6.7,2.7a15.66,15.66,0,0,1,1.7-2.1ZM9.9,40.2l.2.3.3-.2a66.74,66.74,0,0,1,7.2-4.5l.2-.2v-.2a66.79,66.79,0,0,1-1.7-8.7v-.4h-.4a66.42,66.42,0,0,0-10.8,3H4.6v.3A61.72,61.72,0,0,0,9.9,40.2ZM9.3,45l-.3.2a73.64,73.64,0,0,0-7.6,7.2l-.2.3.3.2a71.65,71.65,0,0,0,8.3,6.2l.3.2.2-.3a60.72,60.72,0,0,1,4.4-6.8V52l-.2-.2a78.37,78.37,0,0,1-5-6.4ZM28.8,76.5h.9L29,76a32.57,32.57,0,0,1-6.8-7.6l-.5-.2v.5c-.3,2.5-.5,5.1-.6,7.6v.3H25c1.1-.1,2.5-.1,3.8-.1ZM27.2,21.4a60.54,60.54,0,0,1,2-7.3,61.71,61.71,0,0,0-9.5-2,52.38,52.38,0,0,0,0,9.7c2.3-.2,4.9-.3,7.5-.4Zm4.8-.2a31.19,31.19,0,0,1,6.9-3.3c-1.8-.8-3.5-1.6-5.4-2.3-.6,1.9-1.1,3.7-1.5,5.6ZM8.8,61.7l-.3-.2a76.71,76.71,0,0,1-7.4-5.3l-.7-.5v.8A49.68,49.68,0,0,0,4.3,70.3l.3.8.3-.8A85.84,85.84,0,0,1,8.4,62Zm6.4-47.3a48.81,48.81,0,0,0-7.7,9.9,54.87,54.87,0,0,1,7.8-1.8,73,73,0,0,1-.1-8.1Zm1.5,35v-.9a33.86,33.86,0,0,1,1.5-8.9l.3-.8-.7.4c-1.9,1.1-3.9,2.4-5.7,3.7l-.3.2.2.3c1.3,1.8,2.7,3.6,4.1,5.3Zm.3,5.1v-.9l-.5.7a46.71,46.71,0,0,0-3.8,6l-.2.3.3.2C14.9,62,17.1,63,19.3,64l.8.4-.4-.8A35.4,35.4,0,0,1,17,54.5ZM7.3,42.6l.2-.2-.2-.3A73.67,73.67,0,0,1,3,34.3l-.3-.8-.3.8A47.28,47.28,0,0,0,0,48.3v.9l.6-.6c2.2-2.1,4.4-4.1,6.7-6Z"/></g></g></svg>