<svg xmlns="http://www.w3.org/2000/svg" width="100" height="100" viewBox="-5 -5 110 110">
    <path fill="none" stroke="#1e66f5" stroke-linecap="round" stroke-linejoin="round" stroke-width="5" d="M53.846 4.143 87.791 23.74a7.686 7.686 0 0 1 3.846 6.662v39.196a7.689 7.689 0 0 1-3.846 6.662L53.846 95.858a7.688 7.688 0 0 1-7.692 0L12.209 76.26a7.686 7.686 0 0 1-3.846-6.662V30.402a7.693 7.693 0 0 1 3.846-6.662L46.154 4.143a7.687 7.687 0 0 1 7.692 0z"/>
    <path fill="none" stroke="#4c4f69" stroke-linecap="round" stroke-linejoin="round" stroke-width="5" d="M46.86 49.718h9.437m-4.719 4.719v-9.438M66.456 49.718h9.438m-4.719 4.719v-9.438"/>
    <path fill="none" stroke="#4c4f69" stroke-linecap="round" stroke-linejoin="round" stroke-width="5" d="M68.13 67.213a25 25 0 0 1-27.303 6.043A25 25 0 0 1 25 50.201a25 25 0 0 1 15.454-23.307 25 25 0 0 1 27.397 5.604"/>
</svg>
