<svg xmlns="http://www.w3.org/2000/svg" viewBox="0 0 114.5 82.46"><title>Docker logo</title><path d="M461.73,502.24c-2.57-1.79-8.47-2.45-13.08-1.56-.54-4.46-3-8.37-7.29-11.83l-2.47-1.79-1.72,2.57a21.15,21.15,0,0,0-2.89,12.5,14.91,14.91,0,0,0,2.25,6.81,17.87,17.87,0,0,1-8.68,2H350.34l-.21.89c-.75,4.46-.75,18.41,8,29.12,6.65,8.15,16.51,12.27,29.48,12.27,28.09,0,48.89-13.5,58.64-37.94,3.86.11,12.11,0,16.3-8.37.11-.22.32-.67,1.07-2.34l.43-.89-2.36-1.45ZM412.3,470.77H400.51v11.16H412.3V470.77Zm0,13.39H400.51v11.16H412.3V484.16Zm-13.94,0H386.57v11.16h11.79V484.16Zm-13.94,0H372.64v11.16h11.79V484.16Zm-13.94,13.39H358.7v11.16h11.79V497.55Zm13.94,0H372.64v11.16h11.79V497.55Zm13.94,0H386.57v11.16h11.79V497.55Zm13.94,0H400.51v11.16H412.3V497.55Zm13.94,0H414.45v11.16h11.79V497.55Z" transform="translate(-349.82 -470.77)" style="fill:#2496ed"/></svg>