<?xml version="1.0" encoding="iso-8859-1"?>
<!-- Generator: Adobe Illustrator 19.0.0, SVG Export Plug-In . SVG Version: 6.00 Build 0)  -->
<svg version="1.1" id="Layer_1" xmlns="http://www.w3.org/2000/svg" xmlns:xlink="http://www.w3.org/1999/xlink" x="0px" y="0px"
	 viewBox="0 0 380.681 380.681" style="enable-background:new 0 0 380.681 380.681;" xml:space="preserve">
<g>
	<path style="fill:#333E48;" d="M93.563,342.613c15.387,15.387,40.329,15.387,55.715,0c15.385-15.385,15.385-40.33-0.002-55.714
		l-79.982-79.982c-30.769,30.768-30.77,80.655,0,111.427L93.563,342.613z"/>
	<g>
		<path style="fill:#2D3740;" d="M128.461,280.534c-27.654,0-50.073,22.419-50.073,50.072c0,8.669,2.205,16.823,6.082,23.933h-5.28
			c-7.218,0-13.07,5.853-13.07,13.07v7.171c0,3.259,2.641,5.9,5.9,5.9h56.441c27.655,0,50.074-22.419,50.074-50.074
			C178.535,302.953,156.117,280.534,128.461,280.534z"/>
		<path style="fill:#DADBDC;" d="M84.096,354.539H79.19c-7.218,0-13.07,5.853-13.07,13.07v7.171c0,3.259,2.641,5.9,5.9,5.9h25.408
			c0.011-0.333,0.025-0.665,0.025-1.001C97.453,369.217,92.155,359.991,84.096,354.539z"/>
	</g>
	<g>
		<path style="fill:#2D3740;" d="M272.124,280.534c27.654,0,50.073,22.419,50.073,50.072c0,8.669-2.205,16.823-6.082,23.933h5.28
			c7.218,0,13.07,5.853,13.07,13.07v7.171c0,3.259-2.641,5.9-5.9,5.9h-56.441c-27.655,0-50.074-22.419-50.074-50.074
			C222.05,302.953,244.469,280.534,272.124,280.534z"/>
		<path style="fill:#DADBDC;" d="M316.489,354.539h4.906c7.218,0,13.07,5.853,13.07,13.07v7.171c0,3.259-2.641,5.9-5.9,5.9h-25.408
			c-0.011-0.333-0.025-0.665-0.025-1.001C303.133,369.217,308.431,359.991,316.489,354.539z"/>
	</g>
	<g>
		<path style="fill:#333E48;" d="M154.358,380.681h91.714c20.379,0,37.057-16.676,37.057-37.057V225.345
			c0-45.792-37.122-82.913-82.915-82.913c-45.792,0-82.914,37.121-82.914,82.913v118.279
			C117.301,364.005,133.977,380.681,154.358,380.681z"/>
		<path style="fill:#FFFFFF;" d="M200.293,227.912c-24.444,0-44.26,19.816-44.26,44.26v108.509h88.52V272.172
			C244.553,247.729,224.737,227.912,200.293,227.912z"/>
	</g>
	<g>
		<g>
			<path style="fill:#333E48;" d="M253.426,6.248c8.217-8.283,21.594-8.338,29.878-0.121c4.142,4.107,6.226,9.507,6.249,14.913
				l0.001,0.001l0.407,99.905l-53.325,0.217c-15.857,0.064-28.764-12.737-28.828-28.594l-0.164-40.165L253.426,6.248z"/>
			<path style="fill:#FF9C9F;" d="M273.92,111.012l-0.346-84.906c-0.004-0.943-0.245-2.769-1.814-4.325
				c-1.567-1.554-3.392-1.78-4.34-1.776s-2.77,0.245-4.325,1.812L221.69,63.56l0.138,33.953c0.031,7.561,6.207,13.686,13.767,13.655
				L273.92,111.012z"/>
		</g>
		<g>
			<path style="fill:#333E48;" d="M146.196,6.685c-8.284-8.216-21.661-8.161-29.877,0.122c-4.108,4.142-6.149,9.558-6.128,14.964
				l-0.001,0.001l0.407,99.905l53.325-0.218c15.857-0.064,28.659-12.971,28.594-28.827l-0.163-40.166L146.196,6.685z"/>
			<path style="fill:#FF9C9F;" d="M126.556,111.612l-0.346-84.905c-0.004-0.944,0.223-2.772,1.778-4.341
				c1.554-1.566,3.377-1.808,4.325-1.811c0.948-0.004,2.772,0.223,4.34,1.776l41.745,41.406l0.138,33.952
				c0.031,7.561-6.095,13.736-13.655,13.767L126.556,111.612z"/>
		</g>
		<path style="fill:#333E48;" d="M289.961,120.946c-0.202-49.531-40.517-89.52-90.047-89.317
			c-49.358,0.2-89.236,40.239-89.313,89.534h-0.004v20.903h0.006c-0.001,0.244-0.007,0.486-0.006,0.73
			c0.202,49.53,40.517,89.519,90.047,89.317c49.531-0.201,89.519-40.518,89.317-90.048v-20.903h-0.002
			C289.959,121.091,289.961,121.019,289.961,120.946z"/>
		<path style="fill:#FFFFFF;" d="M269.456,108.006c-0.094-23.063-18.866-41.682-41.929-41.588c-6.24,0.025-12.15,1.428-17.456,3.904
			l-0.032-7.908c-0.022-5.522-4.518-9.982-10.041-9.959c-5.523,0.021-9.982,4.518-9.959,10.04l0.032,7.908
			c-5.327-2.433-11.248-3.787-17.488-3.762c-23.062,0.094-41.682,18.866-41.588,41.929l0.056,13.797
			c0.042,10.313,3.828,19.732,10.054,26.992l0,0l39.248,45.891c4.649,6.105,12.003,10.035,20.268,10.001
			c8.265-0.033,15.587-4.022,20.186-10.165l38.874-46.21h-0.001c6.167-7.311,9.875-16.76,9.833-27.073L269.456,108.006z"/>
		<path style="fill:#FF9C9F;" d="M200.215,157.009c-3.643,3.076-8.1,5.216-13,6.059v12.2c0,7.18,5.82,13,13,13s13-5.82,13-13v-12.2
			C208.314,162.225,203.858,160.085,200.215,157.009z"/>
		<circle style="fill:#0075C9;" cx="157.367" cy="108.767" r="7.805"/>
		<circle style="fill:#0075C9;" cx="243.086" cy="108.419" r="7.805"/>
		<path style="fill:#333E48;" d="M208.908,133.779c-4.328,4.526-11.569,4.683-16.09,0.354l-5.045-4.83
			c-4.523-4.331-3.099-7.896,3.163-7.921l18.564-0.076c6.262-0.025,7.843,3.658,3.514,8.181L208.908,133.779z"/>
	</g>
	<g>
		<path style="fill:#2D3740;" d="M178.535,261.556c0-12.094-9.805-21.898-21.898-21.898c-12.094,0-21.898,9.805-21.898,21.898
			v92.983h-18.152c-7.219,0-13.069,5.853-13.069,13.07v7.171c0,3.259,2.64,5.9,5.899,5.9h56.05c7.218,0,13.069-5.852,13.069-13.071
			V261.556H178.535z"/>
		<path style="fill:#DADBDC;" d="M134.739,330.608v23.932h-18.152c-7.219,0-13.069,5.853-13.069,13.07v7.171
			c0,3.259,2.64,5.9,5.899,5.9h56.05c7.218,0,13.069-5.852,13.069-13.071v-37.002L134.739,330.608L134.739,330.608z"/>
	</g>
	<g>
		<path style="fill:#2D3740;" d="M222.05,261.556c0-12.094,9.805-21.898,21.898-21.898c12.094,0,21.898,9.805,21.898,21.898v92.983
			h18.152c7.219,0,13.069,5.853,13.069,13.07v7.171c0,3.259-2.64,5.9-5.899,5.9h-56.05c-7.218,0-13.069-5.852-13.069-13.071
			L222.05,261.556L222.05,261.556z"/>
		<path style="fill:#DADBDC;" d="M265.847,330.608v23.932h18.152c7.219,0,13.069,5.853,13.069,13.07v7.171
			c0,3.259-2.64,5.9-5.899,5.9h-56.05c-7.218,0-13.069-5.852-13.069-13.071v-37.002L265.847,330.608L265.847,330.608z"/>
	</g>
</g>
<g>
</g>
<g>
</g>
<g>
</g>
<g>
</g>
<g>
</g>
<g>
</g>
<g>
</g>
<g>
</g>
<g>
</g>
<g>
</g>
<g>
</g>
<g>
</g>
<g>
</g>
<g>
</g>
<g>
</g>
</svg>
