<svg width="114" height="114" viewBox="0 0 114 114" fill="none" xmlns="http://www.w3.org/2000/svg">
<path d="M0 41.2571C0 26.8158 0 19.5951 2.81047 14.0792C5.28264 9.22735 9.22735 5.28264 14.0792 2.81047C19.5951 0 26.8158 0 41.2571 0H72.7429C87.1842 0 94.4049 0 99.9208 2.81047C104.773 5.28264 108.717 9.22735 111.19 14.0792C114 19.5951 114 26.8158 114 41.2571V72.7429C114 87.1842 114 94.4049 111.19 99.9208C108.717 104.773 104.773 108.717 99.9208 111.19C94.4049 114 87.1842 114 72.7429 114H41.2571C26.8158 114 19.5951 114 14.0792 111.19C9.22735 108.717 5.28264 104.773 2.81047 99.9208C0 94.4049 0 87.1842 0 72.7429V41.2571Z" fill="#B30B00"/>
<path d="M89.7348 64.7259C84.4118 58.8891 69.9068 61.4427 66.4025 61.8075C61.4344 56.7003 57.9301 50.9091 56.5106 48.7203C58.285 43.2483 59.7044 37.0923 59.7044 31.2555C59.7044 25.7835 57.5752 20.3571 51.9418 20.3571C49.8126 20.3571 48.0383 21.4515 46.9737 23.2755C44.4896 27.6531 45.5542 36.3627 49.4577 45.4371C47.3285 52.0035 43.7799 61.8075 39.5659 69.4227C33.8881 71.6115 21.5122 77.4027 20.4476 83.9691C20.0927 85.7931 20.8025 87.9819 22.2219 89.0763C23.6414 90.5355 25.4157 90.9003 27.19 90.9003C34.5978 90.9003 42.0499 80.3667 47.3729 70.8819C51.6313 69.4227 58.3293 67.2339 65.0717 66.1395C72.8344 73.4355 79.9317 74.4843 83.4803 74.4843C88.4484 74.4843 90.2227 72.2955 90.8881 70.4715C91.8196 68.7387 91.1542 66.1851 89.7348 64.7259ZM84.7667 68.3739C84.4118 69.8331 82.6375 71.2923 79.4437 70.5627C75.5402 69.4683 72.0359 67.6443 69.197 65.0907C71.6811 64.7259 77.6694 63.9963 81.9278 64.7259C83.3472 65.0907 85.1215 66.1851 84.7667 68.3739ZM50.4336 24.7347C50.7885 24.0051 51.4982 23.6403 52.2079 23.6403C53.9822 23.6403 54.3371 25.8291 54.3371 27.6531C53.9822 32.0307 53.2725 36.7275 51.8531 40.7403C49.0141 32.7603 49.369 26.9235 50.4336 24.7347ZM50.0787 65.8203C51.8531 62.5371 53.9822 56.3811 54.692 54.1923C56.4663 57.4755 59.6601 61.1235 61.0795 62.9019C61.4344 62.5827 55.0468 63.9963 50.0787 65.8203ZM38.0577 74.2107C33.134 82.1907 28.5208 87.2979 25.6819 87.2979C25.327 87.2979 24.6173 87.2979 24.2624 86.9331C23.9075 86.2035 23.5527 85.4739 23.9075 84.7443C24.2624 81.8259 29.9402 77.8131 38.0577 74.2107Z" fill="white"/>
</svg>
