<svg width="114" height="114" viewBox="0 0 114 114" fill="none" xmlns="http://www.w3.org/2000/svg">
<path d="M0 41.2571C0 26.8158 0 19.5951 2.81047 14.0792C5.28264 9.22735 9.22735 5.28264 14.0792 2.81047C19.5951 0 26.8158 0 41.2571 0H72.7429C87.1842 0 94.4049 0 99.9208 2.81047C104.773 5.28264 108.717 9.22735 111.19 14.0792C114 19.5951 114 26.8158 114 41.2571V72.7429C114 87.1842 114 94.4049 111.19 99.9208C108.717 104.773 104.773 108.717 99.9208 111.19C94.4049 114 87.1842 114 72.7429 114H41.2571C26.8158 114 19.5951 114 14.0792 111.19C9.22735 108.717 5.28264 104.773 2.81047 99.9208C0 94.4049 0 87.1842 0 72.7429V41.2571Z" fill="#00005B"/>
<path d="M24.4286 80.5967V29.3467C24.4286 28.9981 24.5715 28.7988 24.905 28.7988C29.8283 28.7988 34.7493 28.5 39.674 28.5C47.6648 28.5 56.3172 31.285 59.35 39.8059C60.0646 41.8977 60.4458 44.0394 60.4458 46.2806C60.4458 50.5639 59.4929 54.1001 57.5873 56.8892C52.264 64.6803 43.0375 64.5593 34.7669 64.5593V80.5469C34.8315 81.0202 34.4358 81.2442 34.0522 81.2442H25.0003C24.6192 81.2442 24.4286 81.0449 24.4286 80.5967ZM34.8145 38.4113V55.146C38.0938 55.3909 41.5254 55.4175 44.6763 54.3491C48.1548 53.3264 50.0599 50.2571 50.0599 46.5794C50.1566 43.4456 48.4812 40.4388 45.6292 39.3078C42.5163 37.9885 38.1748 37.9095 34.8145 38.4113Z" fill="#9999FF"/>
<path d="M66.9039 41.5771H75.2647C75.7257 41.5813 76.1396 41.9142 76.2617 42.3791C76.8745 43.8013 76.9499 45.5164 76.9521 47.0519C78.3859 45.3066 80.1149 43.8523 82.0527 42.762C84.1311 41.5325 86.4873 40.9093 88.875 40.9577C89.2712 40.8985 89.622 41.2652 89.5654 41.6794V51.382C89.5654 51.7567 89.3088 51.9433 88.7984 51.9433C85.2596 51.688 79.75 52.5621 77.1786 55.4716V80.6999C77.1786 81.1811 76.974 81.4216 76.5649 81.4216H67.5943C67.1536 81.4877 66.7649 81.0731 66.8271 80.6197V53.2264C66.8271 49.5557 66.9032 45.7746 66.367 42.1386C66.2844 41.804 66.5909 41.4928 66.9039 41.5771Z" fill="#9999FF"/>
</svg>
