<svg width="114" height="114" viewBox="0 0 114 114" fill="none" xmlns="http://www.w3.org/2000/svg">
<path d="M0 41.2571C0 26.8158 0 19.5951 2.81047 14.0792C5.28264 9.22735 9.22735 5.28264 14.0792 2.81047C19.5951 0 26.8158 0 41.2571 0H72.7429C87.1842 0 94.4049 0 99.9208 2.81047C104.773 5.28264 108.717 9.22735 111.19 14.0792C114 19.5951 114 26.8158 114 41.2571V72.7429C114 87.1842 114 94.4049 111.19 99.9208C108.717 104.773 104.773 108.717 99.9208 111.19C94.4049 114 87.1842 114 72.7429 114H41.2571C26.8158 114 19.5951 114 14.0792 111.19C9.22735 108.717 5.28264 104.773 2.81047 99.9208C0 94.4049 0 87.1842 0 72.7429V41.2571Z" fill="#001E36"/>
<path d="M24.4286 83.5304V33.3996C24.4286 33.0586 24.5711 32.8637 24.9036 32.8637C29.8122 32.8637 34.7186 32.5714 39.6286 32.5714C47.5957 32.5714 56.2223 35.2956 59.2461 43.6304C59.9586 45.6765 60.3386 47.7714 60.3386 49.9637C60.3386 54.1535 59.3886 57.6124 57.4886 60.3407C52.1811 67.9616 42.9821 67.8432 34.7361 67.8432V83.4817C34.8006 83.9446 34.406 84.1637 34.0236 84.1637H24.9986C24.6186 84.1637 24.4286 83.9689 24.4286 83.5304ZM34.7836 42.2663V58.6355C38.0532 58.8751 41.4746 58.901 44.6161 57.856C48.0842 56.8556 49.9836 53.8534 49.9836 50.256C50.08 47.1906 48.4096 44.2494 45.5661 43.1432C42.4624 41.8527 38.1339 41.7754 34.7836 42.2663Z" fill="#31A8FF"/>
<path d="M89.965 55.4014C88.5278 54.644 86.9971 54.0899 85.4147 53.7542C83.3813 53.2757 75.3613 51.6001 75.3583 55.7936C75.4294 58.1348 79.1458 59.2818 80.7878 59.9507C86.5524 61.9298 93.0757 65.4674 92.9474 72.5789C93.1237 81.4319 84.5462 84.9709 77.1936 84.9718C73.3658 85.0114 69.3783 84.4185 65.8752 82.7755C65.5408 82.5984 65.3256 82.2199 65.3399 81.8342V73.3632C65.3022 73.0236 65.6667 72.7267 65.9517 72.9711C69.384 75.0468 73.4524 76.0546 77.423 76.1085C79.1758 76.1085 82.6497 75.9385 82.6234 73.3632C82.6234 70.8918 78.4677 69.7555 76.8111 69.1276C74.4099 68.2704 72.1331 67.0831 70.0431 65.5981C67.1224 63.5147 65.2901 60.1744 65.3399 56.4995C65.3228 48.1637 73.2184 44.4221 80.3291 44.4204C83.6533 44.393 87.2229 44.6391 90.3173 45.9891C90.7623 46.1201 90.8545 46.5888 90.8526 47.0088V54.9308C90.8808 55.4225 90.3347 55.59 89.965 55.4014Z" fill="#31A8FF"/>
</svg>
