<svg xmlns="http://www.w3.org/2000/svg" xmlns:xlink="http://www.w3.org/1999/xlink" width="512pt" height="512pt"
  viewBox="0 0 512 512" version="1.1">
  <g id="surface1">
    <path style=" stroke:none;fill-rule:nonzero;fill:#FFF8EE;fill-opacity:1;"
      d="M 233.703125 200.703125 C 256.046875 200.703125 279.375 182.273438 279.375 182.273438 C 279.375 182.273438 323.59375 236.550781 329.824219 260.121094 C 336.046875 283.695313 344.777344 310.433594 344.414063 329.0625 C 344.054688 347.695313 340.054688 360.726563 340.054688 360.726563 C 340.054688 360.726563 327.191406 333.960938 323.625 368.824219 C 320.054688 403.6875 312.054688 446.230469 256.054688 446.230469 C 200.054688 446.230469 193.441406 413.257813 193.441406 413.257813 C 193.441406 413.257813 227.488281 397.832031 216.097656 386.441406 C 204.703125 375.046875 160.0625 363.6875 160.0625 315.6875 C 160.0625 267.6875 191.519531 240.265625 195.792969 225.976563 C 200.0625 211.6875 211.878906 194.167969 211.878906 194.167969 Z " />
    <path style=" stroke:none;fill-rule:nonzero;fill:#8B8E98;fill-opacity:1;"
      d="M 400.902344 354.609375 C 400.902344 339.703125 403.320313 331.296875 403.320313 318.617188 C 403.320313 291.566406 386.894531 261.945313 367.855469 234.574219 C 348.816406 207.214844 333.351563 190.550781 325.015625 156.046875 C 316.6875 121.542969 322.089844 132.367188 314.953125 102.617188 C 308.222656 71.039063 300.558594 43.703125 246.222656 43.703125 C 196.367188 43.703125 187.3125 88.9375 187.3125 132.0625 C 187.3125 146.328125 187.3125 159.238281 187.3125 181.152344 C 187.3125 185.910156 186.121094 191.863281 183.734375 196.617188 C 178.984375 207.328125 128.398438 260.238281 128.398438 338.238281 C 128.398438 338.238281 144.03125 408.273438 190 408.273438 C 200.039063 408.273438 209.457031 404.984375 214.9375 397.152344 C 218.511719 391.199219 216.128906 385.257813 213.742188 381.6875 C 211.367188 378.128906 189.367188 367.824219 181.039063 360.6875 C 172.710938 353.550781 157.847656 335.433594 157.847656 318.609375 C 157.847656 272.382813 205.753906 219.824219 206.9375 200.792969 C 206.9375 198.679688 206.9375 195.121094 206.9375 190.976563 C 206.9375 190.976563 219.34375 200.703125 233.6875 200.703125 C 248.03125 200.703125 279.359375 182.273438 279.359375 182.273438 C 279.359375 182.273438 288.03125 203.695313 304.03125 219.695313 C 320.03125 235.695313 344.03125 291.695313 344.03125 323.695313 C 344.03125 355.695313 344.03125 379.695313 344.03125 379.695313 C 344.03125 379.695313 344.03125 387.695313 360.03125 387.695313 C 376.03125 387.695313 400.902344 354.609375 400.902344 354.609375 " />
    <path style=" stroke:none;fill-rule:nonzero;fill:#FFF8EE;fill-opacity:1;"
      d="M 200.566406 169.152344 C 200.566406 147.703125 236.742188 140.871094 237.449219 140.871094 C 240.183594 140.871094 243.03125 141.320313 245.863281 141.984375 C 246.113281 138.792969 246.222656 135.472656 246.222656 132.0625 C 246.222656 96.472656 238.792969 82.976563 216.769531 82.976563 C 194.742188 82.976563 177.496094 104.535156 177.496094 132.0625 C 177.496094 154.175781 188.710938 172.222656 204.496094 178.550781 C 202.113281 175.824219 200.566406 172.808594 200.566406 169.152344 Z " />
    <path style=" stroke:none;fill-rule:nonzero;fill:#FFF8EE;fill-opacity:1;"
      d="M 265.863281 82.976563 C 243.839844 82.976563 236.40625 95.863281 236.40625 132.0625 C 236.40625 135.121094 236.535156 138.0625 236.734375 140.953125 C 236.984375 140.945313 237.214844 140.871094 237.457031 140.871094 C 240.726563 140.871094 289.632813 158.769531 288.863281 164.425781 C 288.503906 168.222656 288.105469 170.984375 287.40625 173.246094 C 298.136719 164.59375 305.136719 149.558594 305.136719 132.0625 C 305.136719 104.535156 287.878906 82.976563 265.863281 82.976563 Z " />
    <path style=" stroke:none;fill-rule:nonzero;fill:#8D6C9F;fill-opacity:1;"
      d="M 265.863281 151.703125 C 260.449219 151.703125 256.046875 145.105469 256.046875 136.976563 C 256.046875 128.847656 260.449219 122.246094 265.863281 122.246094 C 271.28125 122.246094 275.679688 128.847656 275.679688 136.976563 C 275.679688 145.105469 271.28125 151.703125 265.863281 151.703125 Z " />
    <path style=" stroke:none;fill-rule:nonzero;fill:#8D6C9F;fill-opacity:1;"
      d="M 216.769531 151.703125 C 211.351563 151.703125 206.953125 145.105469 206.953125 136.976563 C 206.953125 128.847656 211.351563 122.246094 216.769531 122.246094 C 222.183594 122.246094 226.585938 128.847656 226.585938 136.976563 C 226.59375 145.105469 222.191406 151.703125 216.769531 151.703125 Z " />
    <path style=" stroke:none;fill-rule:nonzero;fill:#F9DD8F;fill-opacity:1;"
      d="M 360.039063 387.703125 C 344.039063 387.703125 344.640625 352.863281 344.640625 352.863281 C 342.753906 351.703125 340.441406 350.832031 337.527344 350.832031 C 331.726563 350.832031 329.40625 353.152344 327.078125 357.792969 C 324.753906 362.433594 324.761719 365.910156 324.761719 377.519531 C 324.761719 386.800781 324.761719 397.246094 323.601563 405.367188 C 321.273438 425.097656 314.945313 433.929688 314.945313 445.535156 C 314.945313 458.296875 318.433594 466.414063 323.0625 469.902344 C 326.550781 473.390625 332.351563 475.703125 345.113281 475.703125 C 357.871094 475.703125 365.992188 471.0625 374.128906 462.945313 C 379.929688 457.144531 384.574219 454.824219 400.816406 443.214844 C 413.574219 435.097656 433.304688 424.648438 436.792969 421.175781 C 439.097656 418.847656 442.585938 417.6875 442.585938 410.726563 C 442.585938 404.929688 437.945313 402.609375 434.464844 401.449219 C 429.824219 399.128906 421.703125 395.648438 414.734375 385.199219 C 411.246094 379.398438 412.414063 363.160156 406.617188 356.183594 C 403.128906 351.542969 398.496094 353.863281 397.335938 353.863281 C 394.734375 354.441406 391.449219 356.054688 387.710938 357.871094 C 376.039063 371.703125 377.9375 387.703125 360.039063 387.703125 Z " />
    <path style=" stroke:none;fill-rule:nonzero;fill:#F9DD8F;fill-opacity:1;"
      d="M 187.511719 404.007813 C 176.136719 385.863281 174.992188 382.464844 167.023438 371.128906 C 160.199219 359.792969 145.40625 338.246094 136.296875 338.246094 C 129.464844 338.246094 126.054688 341.648438 121.503906 346.183594 C 116.953125 350.71875 112.113281 357.777344 104.144531 363.449219 C 97.136719 372.601563 76.136719 363.800781 70.105469 377.527344 C 66.800781 385.023438 78.238281 394.9375 78.238281 411.945313 C 78.238281 418.742188 72.542969 423.28125 71.40625 427.816406 C 70.273438 433.480469 69.128906 436.886719 71.40625 441.425781 C 75.960938 448.222656 81.648438 450.496094 120.351563 458.433594 C 140.839844 462.96875 160.191406 474.304688 172.710938 475.441406 C 185.230469 476.566406 206.855469 475.441406 206.855469 444.824219 C 208 426.679688 197.761719 422.144531 187.511719 404.007813 Z " />
    <path style=" stroke:none;fill-rule:nonzero;fill:#F9DD8F;fill-opacity:1;"
      d="M 209.425781 186.65625 C 202.71875 181.945313 197.128906 177.230469 197.128906 170.160156 C 197.128906 163.089844 201.59375 160.734375 208.304688 154.839844 C 209.425781 153.664063 221.710938 141.878906 234.007813 141.878906 C 246.304688 141.878906 260.832031 150.128906 266.414063 152.480469 C 276.472656 154.839844 286.535156 157.191406 285.414063 165.441406 C 284.296875 177.222656 283.175781 179.574219 272.007813 185.472656 C 264.183594 187.832031 249.65625 200.792969 239.601563 200.792969 C 235.136719 200.792969 228.425781 200.792969 223.960938 199.617188 C 220.601563 198.441406 215.015625 192.542969 209.425781 186.65625 Z " />
    <path style=" stroke:none;fill-rule:nonzero;fill:#8D6C9F;fill-opacity:1;"
      d="M 136.40625 338.246094 L 120.40625 338.246094 C 120.40625 272.183594 155.472656 223.152344 170.449219 202.214844 C 172.992188 198.65625 175.878906 194.625 176.433594 193.375 C 178.257813 189.726563 179.320313 185.0625 179.320313 181.160156 L 179.320313 164.65625 L 195.320313 164.65625 L 195.320313 181.160156 C 195.320313 187.558594 193.664063 194.679688 190.886719 200.207031 C 189.839844 202.609375 187.433594 205.96875 183.457031 211.527344 C 168.183594 232.878906 136.40625 277.320313 136.40625 338.246094 Z " />
    <path style=" stroke:none;fill-rule:nonzero;fill:#8D6C9F;fill-opacity:1;"
      d="M 409.457031 350.28125 L 393.550781 348.542969 C 394.710938 337.96875 395.320313 327.617188 395.320313 318.609375 C 395.320313 291.214844 375.894531 260.128906 361.289063 239.136719 C 358.046875 234.472656 354.902344 230.121094 351.886719 225.945313 C 337.199219 205.59375 324.519531 188.023438 317.246094 157.910156 C 312.792969 139.480469 312.144531 133.527344 311.519531 127.769531 C 310.992188 122.878906 310.488281 118.265625 307.175781 104.472656 C 300.679688 74 295.113281 47.863281 246.230469 47.863281 C 220.289063 47.863281 204.566406 63.945313 198.160156 97.03125 L 182.457031 93.984375 C 190.3125 53.351563 212.367188 31.863281 246.230469 31.863281 C 308.0625 31.863281 316.222656 70.160156 322.785156 100.945313 C 326.289063 115.519531 326.863281 120.871094 327.425781 126.046875 C 327.992188 131.296875 328.59375 136.726563 332.792969 154.167969 C 339.328125 181.214844 350.601563 196.824219 364.863281 216.585938 C 367.929688 220.839844 371.121094 225.265625 374.425781 230.007813 C 390.257813 252.777344 411.3125 286.726563 411.3125 318.617188 C 411.3125 328.175781 410.671875 339.136719 409.457031 350.28125 Z " />
    <path style=" stroke:none;fill-rule:nonzero;fill:#8D6C9F;fill-opacity:1;"
      d="M 336.054688 347.953125 C 333.777344 276.222656 310.671875 244.40625 292.113281 218.832031 C 284.007813 207.664063 276.351563 197.121094 271.878906 185.046875 L 286.878906 179.488281 C 290.601563 189.496094 297.304688 198.734375 305.0625 209.433594 C 323.863281 235.328125 349.609375 270.800781 352.039063 347.449219 Z " />
    <path style=" stroke:none;fill-rule:nonzero;fill:#8D6C9F;fill-opacity:1;"
      d="M 190 416.28125 C 186.167969 416.28125 182.792969 413.519531 182.128906 409.625 C 181.382813 405.265625 184.3125 401.136719 188.664063 400.390625 C 196.328125 399.089844 206.304688 395.550781 208.390625 392.566406 C 209.175781 391.222656 208.929688 389.078125 207.398438 386.59375 C 205.710938 385.214844 200.152344 382.039063 196.023438 379.679688 C 188.824219 375.558594 180.65625 370.886719 175.855469 366.769531 C 166.863281 359.0625 149.863281 339.078125 149.863281 318.609375 C 149.863281 287.648438 168.695313 255.953125 183.832031 230.480469 C 191.113281 218.222656 198.648438 205.558594 198.976563 200.296875 L 198.960938 190.976563 C 198.960938 186.550781 202.535156 182.976563 206.960938 182.976563 C 211.382813 182.976563 214.960938 186.550781 214.960938 190.976563 L 214.960938 200.800781 C 214.375 210.414063 207.335938 222.265625 197.59375 238.65625 C 183.457031 262.449219 165.863281 292.046875 165.863281 318.609375 C 165.863281 331.382813 177.792969 347.359375 186.273438 354.625 C 189.929688 357.761719 197.71875 362.207031 203.976563 365.792969 C 213.847656 371.433594 218.304688 374.0625 220.433594 377.265625 C 225.703125 385.175781 226.214844 393.9375 221.816406 401.273438 C 214.472656 411.808594 195.152344 415.519531 191.351563 416.167969 C 190.886719 416.238281 190.441406 416.28125 190 416.28125 Z " />
    <path style=" stroke:none;fill-rule:nonzero;fill:#8D6C9F;fill-opacity:1;"
      d="M 208 440 L 312 440 L 312 456 L 208 456 Z " />
    <path style=" stroke:none;fill-rule:nonzero;fill:#8D6C9F;fill-opacity:1;"
      d="M 345.128906 487.863281 C 329.625 487.863281 321.695313 479.871094 317.894531 476.03125 C 310.976563 470.800781 306.960938 459.871094 306.960938 445.527344 C 306.960938 438.59375 308.785156 432.640625 310.710938 426.34375 C 312.527344 420.40625 314.574219 413.679688 315.671875 404.433594 C 316.785156 396.671875 316.785156 386.503906 316.785156 377.527344 C 316.785156 373.664063 317.320313 339.703125 336.054688 339.703125 C 356.425781 339.703125 358.351563 356.945313 359.289063 365.222656 C 359.511719 367.289063 359.847656 370.257813 360.335938 371.695313 C 364.984375 371.488281 369.816406 365.960938 374.480469 360.625 C 380.367188 353.886719 387.015625 346.28125 396.574219 345.878906 C 405.359375 343.953125 410.34375 347.792969 413.039063 351.382813 C 417.558594 356.792969 418.785156 365.121094 419.863281 372.464844 C 420.296875 375.40625 420.945313 379.871094 421.625 381.078125 C 426.726563 388.710938 432.695313 391.640625 437.054688 393.785156 L 437.566406 394.039063 C 448.894531 398.046875 450.609375 406.183594 450.609375 410.71875 C 450.609375 420.070313 445.910156 423.945313 443.390625 426.03125 C 443.089844 426.28125 442.777344 426.519531 442.511719 426.792969 C 439.808594 429.488281 433.792969 433.03125 422.488281 439.601563 C 416.609375 443.023438 410.296875 446.679688 405.136719 449.960938 C 400.113281 453.566406 395.984375 456.414063 392.664063 458.695313 C 386.160156 463.175781 383.183594 465.214844 379.816406 468.59375 L 378.617188 469.792969 C 370.558594 477.839844 360.574219 487.863281 345.128906 487.863281 Z M 337.136719 355.71875 C 335.265625 358.28125 332.777344 367.390625 332.777344 377.527344 C 332.777344 387.03125 332.777344 397.816406 331.535156 406.503906 C 330.304688 416.992188 327.921875 424.769531 326.007813 431.023438 C 324.304688 436.585938 322.960938 440.984375 322.960938 445.527344 C 322.960938 456.054688 325.617188 461.792969 327.878906 463.503906 L 328.726563 464.238281 C 332.390625 467.929688 336.289063 471.863281 345.128906 471.863281 C 353.945313 471.863281 360.113281 465.671875 367.265625 458.496094 L 368.480469 457.28125 C 372.894531 452.863281 376.679688 450.257813 383.574219 445.511719 C 386.832031 443.273438 390.878906 440.480469 396.167969 436.695313 C 401.855469 433.070313 408.359375 429.289063 414.433594 425.761719 C 420.792969 422.0625 429.511719 417.007813 431.191406 415.464844 C 431.761719 414.886719 432.457031 414.296875 433.183594 413.695313 C 434.59375 412.527344 434.59375 412.527344 434.59375 410.71875 C 434.558594 410.367188 434.144531 409.761719 431.953125 409.03125 L 429.992188 408.152344 C 425.03125 405.710938 415.792969 401.183594 408.097656 389.632813 C 405.59375 385.464844 404.824219 380.28125 404.015625 374.785156 C 403.328125 370.113281 402.398438 363.71875 400.542969 361.382813 C 400.40625 361.414063 400.273438 361.449219 400.152344 361.480469 C 399.414063 361.648438 398.496094 361.871094 397.34375 361.871094 C 394.632813 361.871094 390.136719 367.023438 386.511719 371.160156 C 380.0625 378.535156 372.039063 387.703125 360.039063 387.703125 C 345.695313 387.703125 344.128906 373.726563 343.367188 367.015625 C 342.289063 357.328125 341.34375 355.878906 337.136719 355.71875 Z " />
    <path style=" stroke:none;fill-rule:nonzero;fill:#8D6C9F;fill-opacity:1;"
      d="M 175.761719 488 C 174.511719 488 173.257813 487.945313 171.992188 487.832031 C 164.359375 487.136719 156.167969 482.886719 146.6875 477.96875 C 138 473.464844 128.167969 468.351563 118.617188 466.238281 C 80.257813 458.382813 71.382813 455.753906 64.761719 445.878906 L 64.265625 445.023438 C 60.992188 438.503906 62.105469 433.191406 63.191406 428.039063 L 63.566406 426.238281 C 64.40625 422.832031 66.039063 420.304688 67.472656 418.0625 C 68.960938 415.753906 70.238281 413.753906 70.238281 411.945313 C 70.238281 404.855469 67.664063 399.023438 65.390625 393.871094 C 62.625 387.625 59.769531 381.152344 62.792969 374.296875 C 68.03125 362.359375 80.230469 361.296875 88.296875 360.59375 C 91.6875 360.296875 96.808594 359.847656 97.800781 358.566406 L 99.511719 356.921875 C 104.273438 353.535156 107.921875 349.367188 111.128906 345.679688 C 112.792969 343.785156 114.335938 342.023438 115.855469 340.511719 C 120.695313 335.6875 126.175781 330.246094 136.304688 330.246094 C 149.078125 330.246094 163.800781 350.230469 173.886719 367 C 178.425781 373.425781 180.894531 377.585938 184.320313 383.359375 C 186.710938 387.382813 189.640625 392.320313 194.304688 399.761719 L 194.488281 400.070313 C 197.519531 405.433594 200.503906 409.449219 203.390625 413.335938 C 209.785156 421.9375 215.816406 430.054688 214.847656 445.328125 C 214.863281 459.328125 210.601563 470.574219 202.183594 478.273438 C 195.375 484.488281 185.710938 488 175.761719 488 Z M 78.359375 437.414063 C 81.078125 441.113281 86.328125 443.296875 121.953125 450.59375 C 133.671875 453.183594 144.496094 458.808594 154.054688 463.761719 C 161.710938 467.734375 168.9375 471.488281 173.433594 471.894531 C 176.007813 472.136719 184.871094 472.414063 191.382813 466.457031 C 196.335938 461.929688 198.855469 454.640625 198.855469 444.816406 C 199.464844 434.886719 196.488281 430.871094 190.542969 422.871094 C 187.535156 418.832031 184.136719 414.246094 180.648438 408.105469 C 175.945313 400.601563 172.976563 395.601563 170.550781 391.519531 C 167.191406 385.855469 164.976563 382.113281 160.480469 375.71875 C 148.953125 356.601563 139.121094 346.902344 136.015625 346.214844 C 132.910156 346.238281 131.511719 347.488281 127.144531 351.832031 C 125.863281 353.105469 124.574219 354.601563 123.175781 356.199219 C 119.726563 360.136719 115.480469 365 109.648438 369.328125 C 104.328125 375.257813 96.246094 375.960938 89.6875 376.527344 C 81.566406 377.230469 78.65625 377.9375 77.441406 380.71875 C 77.441406 381.550781 78.9375 384.929688 80.023438 387.390625 C 82.648438 393.335938 86.238281 401.472656 86.238281 411.929688 C 86.238281 418.425781 83.175781 423.199219 80.945313 426.6875 C 80.304688 427.6875 79.335938 429.191406 79.167969 429.753906 L 78.847656 431.328125 C 78.015625 435.28125 77.894531 436.289063 78.359375 437.414063 Z " />
    <path style=" stroke:none;fill-rule:nonzero;fill:#8D6C9F;fill-opacity:1;"
      d="M 190.464844 179.527344 C 177.335938 169.121094 169.503906 151.375 169.503906 132.0625 C 169.503906 100.046875 190.273438 74.96875 216.777344 74.96875 C 233.703125 74.976563 248 91.929688 248 112 L 232 112 C 232 99.96875 223.960938 90.976563 216.777344 90.976563 C 199.238281 90.976563 185.503906 109.023438 185.503906 132.070313 C 185.503906 146.542969 191.070313 159.59375 200.398438 166.984375 Z " />
    <path style=" stroke:none;fill-rule:nonzero;fill:#8D6C9F;fill-opacity:1;"
      d="M 283.625 186.855469 L 276.464844 172.542969 C 289.398438 166.070313 297.128906 146.886719 297.128906 132.0625 C 297.128906 109.015625 283.390625 90.96875 265.855469 90.96875 C 248.496094 90.976563 248 109.847656 248 112 L 247.976563 116.800781 C 247.945313 123.503906 247.847656 141.320313 247.984375 143.464844 L 232.015625 144.542969 C 231.871094 142.414063 231.894531 132.328125 231.976563 116.710938 L 232 112 C 232 99.191406 239.078125 74.976563 265.855469 74.976563 C 292.359375 74.976563 313.128906 100.054688 313.128906 132.070313 C 313.136719 151.960938 303 177.167969 283.625 186.855469 Z " />
    <path style=" stroke:none;fill-rule:nonzero;fill:#8D6C9F;fill-opacity:1;"
      d="M 239.601563 208.800781 C 234.734375 208.800781 227.382813 208.800781 221.910156 207.351563 C 216.503906 205.480469 211.617188 200.574219 204.175781 192.742188 C 198.257813 188.574219 189.128906 181.742188 189.128906 170.167969 C 189.128906 160.527344 194.679688 155.871094 200.054688 151.359375 C 200.976563 150.585938 201.960938 149.761719 203.007813 148.839844 L 203.007813 148.847656 C 202.96875 148.847656 217.601563 133.886719 234 133.886719 C 245.816406 133.886719 258.375 139.863281 265.871094 143.433594 C 267.039063 143.984375 268.078125 144.480469 268.9375 144.863281 C 279.761719 147.40625 295.390625 151.398438 293.34375 166.527344 C 292.03125 180.335938 289.679688 185.199219 275.734375 192.558594 L 274.3125 193.136719 C 272.289063 193.742188 268.28125 196.238281 264.742188 198.425781 C 256.910156 203.289063 248.03125 208.800781 239.601563 208.800781 Z M 226.550781 192.015625 C 230.105469 192.800781 236 192.800781 239.601563 192.800781 C 243.472656 192.800781 250.894531 188.191406 256.320313 184.832031 C 260.992188 181.9375 265.070313 179.398438 268.871094 178.089844 C 276.558594 174.023438 276.585938 173.800781 277.457031 164.6875 C 276.335938 163.03125 268.695313 161.230469 264.601563 160.273438 L 263.320313 159.855469 C 262.191406 159.375 260.726563 158.6875 259.007813 157.871094 C 252.726563 154.878906 242.207031 149.878906 234.007813 149.878906 C 226 149.878906 216.105469 158.289063 214.089844 160.375 C 212.441406 161.863281 211.351563 162.777344 210.335938 163.625 C 205.289063 167.847656 205.136719 168.328125 205.136719 170.160156 C 205.136719 172.855469 207.550781 175.550781 214.023438 180.105469 L 215.230469 181.144531 C 218.648438 184.761719 224.289063 190.703125 226.550781 192.015625 Z " />
    <path style=" stroke:none;fill-rule:nonzero;fill:#8D6C9F;fill-opacity:1;"
      d="M 190 416.28125 C 186.167969 416.28125 182.792969 413.519531 182.128906 409.625 C 181.382813 405.265625 184.3125 401.136719 188.664063 400.390625 C 196.328125 399.089844 206.304688 395.550781 208.390625 392.566406 C 209.175781 391.222656 208.929688 389.078125 207.398438 386.59375 C 205.710938 385.214844 200.152344 382.039063 196.023438 379.679688 C 188.824219 375.558594 180.65625 370.886719 175.855469 366.769531 C 166.863281 359.0625 149.863281 339.078125 149.863281 318.609375 C 149.863281 287.648438 168.695313 255.953125 183.832031 230.480469 C 191.113281 218.222656 198.648438 205.558594 198.976563 200.296875 L 198.960938 190.976563 C 198.960938 186.550781 202.535156 182.976563 206.960938 182.976563 C 211.382813 182.976563 214.960938 186.550781 214.960938 190.976563 L 214.960938 200.800781 C 214.375 210.414063 207.335938 222.265625 197.59375 238.65625 C 183.457031 262.449219 165.863281 292.046875 165.863281 318.609375 C 165.863281 331.382813 177.792969 347.359375 186.273438 354.625 C 189.929688 357.761719 197.71875 362.207031 203.976563 365.792969 C 213.847656 371.433594 218.304688 374.0625 220.433594 377.265625 C 225.703125 385.175781 226.214844 393.9375 221.816406 401.273438 C 214.472656 411.808594 195.152344 415.519531 191.351563 416.167969 C 190.886719 416.238281 190.441406 416.28125 190 416.28125 Z " />
  </g>
</svg>